<?xml version="1.0" encoding="utf-8"?>
<!-- Generator: Adobe Illustrator 24.0.1, SVG Export Plug-In . SVG Version: 6.00 Build 0)  -->
<svg version="1.1" id="Layer_1" xmlns="http://www.w3.org/2000/svg" xmlns:xlink="http://www.w3.org/1999/xlink" x="0px" y="0px"
	 viewBox="0 0 384 384" style="enable-background:new 0 0 384 384;" xml:space="preserve">
<style type="text/css">
	.st0{fill:url(#SVGID_1_);}
</style>
<linearGradient id="SVGID_1_" gradientUnits="userSpaceOnUse" x1="191.8883" y1="3.7715" x2="191.8883" y2="371.9378">
	<stop  offset="0" style="stop-color:#8AD2D7"/>
	<stop  offset="1" style="stop-color:#1E6FA3"/>
</linearGradient>
<path class="st0" d="M188.63,56.78c0.85-2.22,3.99-2.23,4.84,0c25.3,66.19,49.11,128.47,72.9,190.75
	c10.09,26.42,21.25,52.51,29.79,79.43c5.44,17.14,14.7,23.6,31.9,20.89c4.45-0.7,9.07-0.32,15.15-0.18
	c1.81,0.04,3.11-1.74,2.51-3.45c-2.28-6.55-4.01-11.85-6.1-17.01c-38.21-93.99-76.84-187.81-114.38-282.07
	c-5.57-13.99-12.75-19.62-27.14-17.49c-4.82,0.71-9.97,0.86-14.72-0.05c-15.28-2.92-21.37,5.16-26.6,18.18
	C115.5,148.47,73.32,250.8,32.2,353.57c-5.82,14.53-12.77,22.01-29.49,16.59c-1.35-0.44-2.1-1.86-1.7-3.21
	c1.13-3.77,2.25-7.84,3.83-11.72C50.43,243,96.23,130.85,141.54,18.52c4.25-10.55,9.31-15.35,21.34-14.69
	c20.24,1.12,40.62-0.21,60.88,0.71c4.75,0.22,11.85,4.23,13.53,8.3c48.31,117.01,96.08,234.24,145.38,355.02
	c0.7,1.7-0.56,3.57-2.4,3.57c-30.83,0.04-59.39,0.51-87.89-0.7c-3.85-0.16-8.51-9.3-10.74-15.08
	c-27.06-69.96-53.72-140.07-80.51-210.13c-2.26-5.91-4.6-11.78-7.75-19.78c-0.87-2.2-3.99-2.18-4.83,0.03
	c-28.37,74.35-55.39,145.19-83.33,218.42c-0.64,1.68,0.59,3.49,2.39,3.52c12.24,0.15,22.27,0.93,31.97-0.54
	c4.54-0.69,9.89-6.31,11.98-10.98c6.54-14.56,12.24-29.56,17.2-44.74c3.2-9.78,8.47-14.15,18.8-12.96
	c5.46,0.63,11.17,0.77,16.58-0.05c17.48-2.66,25.66,4.88,26.61,21.18c0.06,0.96-0.38,1.92-1.22,2.39c-0.18,0.1-0.34,0.15-0.48,0.12
	c-34.74-7.27-45.52,14.09-54.65,42.1c-11.15,34.21-4.4,26.81-39.41,27.47c-19.68,0.37-39.38-0.06-59.06-0.21
	c-0.88-0.01-1.76-0.42-4.01-1.24c-1.36-0.49-2.05-2.01-1.53-3.35C109.26,264.95,148.09,163.1,188.63,56.78z"/>
</svg>
